<svg width="36" height="36" viewBox="0 0 36 36" fill="none" xmlns="http://www.w3.org/2000/svg">
<circle cx="18" cy="18" r="18" fill="#0D6EFD"/>
<path d="M4 20.7071C4 19.3076 4.23942 18.0577 4.71827 16.9575C5.19711 15.8573 5.93602 14.9877 6.93498 14.3486C7.94221 13.7014 9.19711 13.3778 10.6997 13.3778C11.484 13.3778 12.2683 13.4709 13.0526 13.6569C13.8369 13.8349 14.5015 14.1342 15.0464 14.5549C15.5501 14.9513 15.9133 15.4771 16.1362 16.1324C16.3674 16.7796 16.483 17.4995 16.483 18.2923C16.483 18.8182 16.4376 19.3561 16.3467 19.9062C16.2477 20.068 16.0537 20.2824 15.7647 20.5494C15.4757 20.8082 15.1373 21.0631 14.7492 21.3138C14.3612 21.5646 13.9856 21.7588 13.6223 21.8963C13.2755 21.9206 12.9164 21.9327 12.5449 21.9327C11.8927 21.9327 11.2322 21.9044 10.5635 21.8478C9.89474 21.7911 9.30857 21.7264 8.80495 21.6536C8.871 22.3412 9.08566 22.9399 9.44892 23.4495C9.81218 23.9592 10.3901 24.214 11.1827 24.214C11.257 24.214 11.3767 24.2059 11.5418 24.1897C12.0454 24.1412 12.6316 24.0118 13.3003 23.8014C13.9773 23.583 14.6502 23.3322 15.3189 23.0491C15.6326 23.3565 15.8638 23.6639 16.0124 23.9713C16.161 24.2787 16.2642 24.7196 16.322 25.294C16.066 25.5852 15.6491 25.9412 15.0712 26.3618C14.5015 26.7825 13.8039 27.1627 12.9783 27.5025C12.1527 27.8342 11.29 28 10.3901 28C9.03612 28 7.87616 27.6805 6.91022 27.0414C5.95253 26.3942 5.22601 25.5205 4.73065 24.4203C4.24355 23.312 4 22.0743 4 20.7071ZM11.9752 17.9162C11.8596 17.7948 11.6656 17.7018 11.3932 17.6371C11.1207 17.5643 10.8359 17.5279 10.5387 17.5279C10.2993 17.5279 10.0557 17.5481 9.80805 17.5885C9.56863 17.629 9.42415 17.6735 9.37461 17.722C9.09391 18.264 8.91641 18.8788 8.84211 19.5665L12.1486 19.251L11.9752 17.9162ZM11.1579 6C12.0743 6.42876 12.7802 6.92223 13.2755 7.48042C13.7792 8.03861 14.1094 8.62107 14.2663 9.2278C13.5067 9.92352 12.6027 10.5545 11.5542 11.1208C10.5057 11.6871 9.46956 12.1199 8.44582 12.4192C8.14861 12.2331 7.86378 11.9581 7.59133 11.594C7.31889 11.2219 7.13313 10.8619 7.03406 10.5141L11.1579 6Z" fill="white"/>
<path d="M17.9814 18.4865C17.9814 16.6501 18.258 15.016 18.8111 13.5841C19.3725 12.1441 20.2477 11.0075 21.4365 10.1743C22.6254 9.34106 24.128 8.92443 25.9443 8.92443C27.1827 8.92443 28.4912 9.08218 29.87 9.39768C30.3158 9.65655 30.7038 9.92756 31.0341 10.2107C31.3725 10.4858 31.6945 10.8215 32 11.2179C32 11.7922 31.9216 12.5567 31.7647 13.5113C31.6078 14.4578 31.4097 15.3436 31.1703 16.1688C30.9391 16.9858 30.7162 17.5157 30.5015 17.7584C30.2869 17.8636 30.1053 17.9364 29.9567 17.9768C29.8081 18.0092 29.5769 18.0254 29.2632 18.0254C28.8751 18.0254 28.5119 17.9971 28.1734 17.9404C27.8349 17.8838 27.5789 17.8069 27.4056 17.7099L26.9721 13.6205C26.386 13.4587 25.5728 13.3778 24.5325 13.3778C24.2518 13.3778 24.0454 13.3819 23.9133 13.39C23.5583 14.5063 23.3602 16.007 23.3189 17.8919C23.3106 18.1184 23.3065 18.4622 23.3065 18.9233C23.3065 20.0074 23.3643 20.8851 23.4799 21.5565C23.5872 22.1875 23.7028 22.6608 23.8266 22.9763C23.9505 23.2918 24.1651 23.5345 24.4706 23.7044C24.7843 23.8742 25.2508 23.9592 25.87 23.9592C26.7038 23.9592 27.4716 23.8419 28.1734 23.6073C28.8834 23.3646 29.6553 23.0127 30.4892 22.5516C30.8029 22.8833 31.0423 23.1543 31.2074 23.3646C31.3808 23.5749 31.5377 23.8338 31.678 24.1412C31.8266 24.4486 31.9257 24.8005 31.9752 25.1969C31.8431 25.4639 31.4923 25.8198 30.9226 26.2648C30.3529 26.7097 29.6058 27.1101 28.6811 27.4661C27.7565 27.822 26.7203 28 25.5728 28C22.8896 28 20.9536 27.1789 19.7647 25.5367C18.5759 23.8945 17.9814 21.5444 17.9814 18.4865Z" fill="white"/>
</svg>
