<svg width="151" height="36" viewBox="0 0 151 36" fill="none" xmlns="http://www.w3.org/2000/svg">
<path d="M1.44238 19.7729C1.44238 18.1398 1.71615 16.6813 2.26367 15.3975C2.8112 14.1136 3.65609 13.0988 4.79834 12.353C5.95003 11.5978 7.38493 11.2202 9.10303 11.2202C9.99984 11.2202 10.8966 11.3288 11.7935 11.5459C12.6903 11.7536 13.4502 12.1029 14.0732 12.5938C14.6491 13.0563 15.0645 13.6699 15.3193 14.4346C15.5837 15.1898 15.7158 16.0299 15.7158 16.9551C15.7158 17.5687 15.6639 18.1965 15.5601 18.8384C15.4468 19.0272 15.2249 19.2773 14.8945 19.5889C14.5641 19.891 14.1771 20.1883 13.7334 20.481C13.2897 20.7736 12.8602 21.0002 12.4448 21.1606C12.0483 21.189 11.6377 21.2031 11.2129 21.2031C10.4671 21.2031 9.71191 21.1701 8.94727 21.104C8.18262 21.0379 7.51237 20.9624 6.93652 20.8774C7.01204 21.6799 7.25749 22.3784 7.67285 22.9731C8.08822 23.5679 8.74902 23.8652 9.65527 23.8652C9.74023 23.8652 9.87712 23.8558 10.0659 23.8369C10.6418 23.7803 11.312 23.6292 12.0767 23.3838C12.8507 23.1289 13.6201 22.8363 14.3848 22.5059C14.7435 22.8646 15.0078 23.2233 15.1777 23.582C15.3477 23.9408 15.4657 24.4552 15.5317 25.1255C15.2391 25.4653 14.7624 25.8807 14.1016 26.3716C13.4502 26.8625 12.6525 27.3062 11.7085 27.7026C10.7645 28.0897 9.77799 28.2832 8.74902 28.2832C7.20085 28.2832 5.87451 27.9103 4.77002 27.1646C3.67497 26.4093 2.84424 25.3898 2.27783 24.106C1.72087 22.8127 1.44238 21.3683 1.44238 19.7729ZM10.5615 16.5161C10.4294 16.3745 10.2075 16.266 9.896 16.1904C9.58447 16.1055 9.25879 16.063 8.91895 16.063C8.64518 16.063 8.3667 16.0866 8.0835 16.1338C7.80973 16.181 7.64453 16.2329 7.58789 16.2896C7.26693 16.922 7.06396 17.6395 6.979 18.4419L10.7598 18.0737L10.5615 16.5161ZM9.62695 2.61084C10.6748 3.11117 11.4819 3.68701 12.0483 4.33838C12.6242 4.98975 13.0018 5.66943 13.1812 6.37744C12.3127 7.18929 11.279 7.92562 10.0801 8.58643C8.88118 9.24723 7.69645 9.75228 6.52588 10.1016C6.18604 9.88444 5.86035 9.56348 5.54883 9.13867C5.2373 8.70443 5.0249 8.28434 4.91162 7.87842L9.62695 2.61084ZM17.4292 17.1816C17.4292 15.0387 17.7454 13.1318 18.3779 11.4609C19.0199 9.7806 20.0205 8.45426 21.3799 7.48193C22.7393 6.5096 24.4574 6.02344 26.5342 6.02344C27.9502 6.02344 29.4465 6.20752 31.0229 6.57568C31.5327 6.87777 31.9764 7.19401 32.354 7.52441C32.741 7.84538 33.1092 8.23714 33.4585 8.69971C33.4585 9.36995 33.3688 10.262 33.1895 11.376C33.0101 12.4805 32.7835 13.5142 32.5098 14.4771C32.2454 15.4305 31.9906 16.0488 31.7451 16.332C31.4997 16.4548 31.292 16.5397 31.1221 16.5869C30.9521 16.6247 30.6878 16.6436 30.3291 16.6436C29.8854 16.6436 29.4701 16.6105 29.083 16.5444C28.696 16.4784 28.4033 16.3887 28.2051 16.2754L27.7095 11.5034C27.0392 11.3146 26.1094 11.2202 24.9199 11.2202C24.599 11.2202 24.363 11.2249 24.2119 11.2344C23.806 12.5371 23.5794 14.2882 23.5322 16.4878C23.5228 16.7521 23.5181 17.1533 23.5181 17.6914C23.5181 18.9564 23.5841 19.9806 23.7163 20.7642C23.839 21.5005 23.9712 22.0527 24.1128 22.4209C24.2544 22.7891 24.4998 23.0723 24.8491 23.2705C25.2078 23.4688 25.7412 23.5679 26.4492 23.5679C27.4027 23.5679 28.2806 23.431 29.083 23.1572C29.8949 22.874 30.7775 22.4634 31.731 21.9253C32.0897 22.3123 32.3634 22.6286 32.5522 22.874C32.7505 23.1195 32.9299 23.4215 33.0903 23.7803C33.2603 24.139 33.3735 24.5496 33.4302 25.0122C33.2791 25.3237 32.8779 25.7391 32.2266 26.2583C31.5752 26.7775 30.7209 27.2448 29.6636 27.6602C28.6063 28.0755 27.4215 28.2832 26.1094 28.2832C23.0413 28.2832 20.8276 27.325 19.4683 25.4087C18.1089 23.4924 17.4292 20.75 17.4292 17.1816ZM34.8604 19.6313C34.8604 17.9227 35.1341 16.4406 35.6816 15.1851C36.2292 13.9295 37.0693 12.9572 38.2021 12.2681C39.335 11.5695 40.7557 11.2202 42.4644 11.2202C44.3524 11.2202 45.8345 11.5742 46.9106 12.2822C47.9868 12.9808 48.7373 13.9531 49.1621 15.1992C49.5964 16.4453 49.8135 17.9699 49.8135 19.7729C49.8135 21.4061 49.5256 22.8646 48.9497 24.1484C48.3833 25.4229 47.5243 26.4329 46.3726 27.1787C45.2303 27.915 43.8285 28.2832 42.167 28.2832C39.5993 28.2832 37.7396 27.495 36.5879 25.9185C35.4362 24.3325 34.8604 22.2368 34.8604 19.6313ZM42.7476 24.1343C43.229 24.1343 43.5216 24.0965 43.6255 24.021C43.8426 23.6434 44.0078 23.11 44.1211 22.4209C44.2344 21.7318 44.291 20.986 44.291 20.1836C44.291 19.4473 44.2438 18.7581 44.1494 18.1162C44.055 17.4648 43.9229 16.9551 43.7529 16.5869C43.6491 16.4642 43.4414 16.3745 43.1299 16.3179C42.8184 16.2518 42.4785 16.2188 42.1104 16.2188C41.6289 16.2188 41.2985 16.2707 41.1191 16.3745C40.6471 17.1864 40.4111 18.3145 40.4111 19.7588C40.4111 20.4385 40.4631 21.1323 40.5669 21.8403C40.6707 22.5483 40.8029 23.1903 40.9634 23.7661C41.0767 23.8888 41.3079 23.9832 41.6572 24.0493C42.0065 24.106 42.37 24.1343 42.7476 24.1343ZM53.0562 23.0723C53.0562 21.5335 53.075 20.3724 53.1128 19.5889C53.1506 18.7959 53.2497 17.6348 53.4102 16.1055L51.7817 15.8931C51.5835 15.2795 51.4513 14.7319 51.3853 14.2505C51.3286 13.769 51.3003 13.146 51.3003 12.3813C51.4513 12.2492 51.7015 12.0934 52.0508 11.9141C52.4095 11.7253 52.8296 11.5648 53.311 11.4326C53.8019 11.291 54.2975 11.2202 54.7979 11.2202C55.9401 11.2202 56.7472 11.4657 57.2192 11.9565C57.7007 12.4474 57.9414 13.1838 57.9414 14.1655C57.9414 14.7131 57.8612 15.4541 57.7007 16.3887C57.4364 17.8896 57.3042 18.6779 57.3042 18.7534C57.3042 18.8006 57.3372 18.8478 57.4033 18.895C57.4694 18.9328 57.5402 18.9517 57.6157 18.9517C57.7007 18.9517 57.7573 18.9186 57.7856 18.8525C57.7762 18.8903 57.8848 18.4136 58.1113 17.4224C58.3851 16.1196 58.6636 15.0576 58.9468 14.2363C59.2394 13.415 59.702 12.7118 60.3345 12.1265C60.967 11.5412 61.826 11.2485 62.9116 11.2485C64.2521 11.2485 65.2197 11.6356 65.8145 12.4097C66.4092 13.1743 66.7065 14.1938 66.7065 15.4683C66.7065 16.4784 66.5366 17.6017 66.1968 18.8384C66.1968 18.8856 66.2298 18.9328 66.2959 18.98C66.362 19.0177 66.4328 19.0366 66.5083 19.0366C66.5933 19.0366 66.6499 19.0036 66.6782 18.9375L66.8765 18.1445C67.2163 16.7474 67.5514 15.5863 67.8818 14.6611C68.2217 13.736 68.7267 12.9383 69.397 12.2681C70.0767 11.5884 70.9593 11.2485 72.0449 11.2485C73.4704 11.2485 74.4946 11.7064 75.1177 12.6221C75.7502 13.5378 76.0664 14.6895 76.0664 16.0771C76.0664 17.0589 75.972 18.0454 75.7832 19.0366C75.6038 20.0278 75.4103 20.8586 75.2026 21.5288C75.0044 22.1991 74.759 22.9731 74.4663 23.8511L74.4946 23.8794L76.5903 23.0015C77.3267 23.634 77.7562 24.4741 77.8789 25.522C77.8789 25.5881 77.6665 25.8618 77.2417 26.3433C76.8169 26.8153 76.2552 27.259 75.5566 27.6743C74.8675 28.0802 74.0745 28.2832 73.1777 28.2832C72.2809 28.2832 71.5493 28.0425 70.9829 27.561C70.4165 27.0796 70.1333 26.2583 70.1333 25.0972C70.1333 23.8039 70.1569 22.4775 70.2041 21.1182C70.2607 19.7493 70.341 18.5221 70.4448 17.4365C70.2843 17.3044 70.0625 17.2336 69.7793 17.2241C69.4961 17.4979 69.1421 18.0973 68.7173 19.0225C68.2925 19.9382 67.9007 20.9199 67.542 21.9678C67.1833 23.0062 66.9567 23.818 66.8623 24.4033C66.9945 25.3285 67.1974 26.2441 67.4712 27.1504C67.3013 27.4714 66.952 27.7404 66.4233 27.9575C65.8947 28.1746 65.2433 28.2832 64.4692 28.2832C63.7707 28.2832 63.2231 28.2266 62.8267 28.1133C62.4302 28 62.1564 27.882 62.0054 27.7593C61.8638 27.6366 61.793 27.5563 61.793 27.5186C61.7835 27.4336 61.7599 27.2118 61.7222 26.853C61.6844 26.4849 61.6466 25.9751 61.6089 25.3237C61.5711 24.6629 61.5522 23.9124 61.5522 23.0723C61.5522 22.2699 61.6136 21.2645 61.7363 20.0562C61.7458 19.9051 61.7741 19.5464 61.8213 18.98C61.8685 18.4136 61.8921 17.8991 61.8921 17.4365C61.7316 17.3044 61.5098 17.2336 61.2266 17.2241C61.0661 17.3468 60.6177 18.1304 59.8813 19.5747C59.145 21.019 58.6541 22.0386 58.4087 22.6333C58.3898 22.7655 58.3804 22.8929 58.3804 23.0156C58.3804 23.4876 58.4512 24.1248 58.5928 24.9272C58.7344 25.7202 58.909 26.4613 59.1167 27.1504C58.9468 27.4714 58.5975 27.7404 58.0688 27.9575C57.5402 28.1746 56.8888 28.2832 56.1147 28.2832C55.4162 28.2832 54.8545 28.2266 54.4297 28.1133C54.0143 28 53.7217 27.882 53.5518 27.7593C53.3818 27.6271 53.2969 27.5469 53.2969 27.5186C53.2874 27.4336 53.2638 27.2118 53.2261 26.853C53.1883 26.4849 53.1506 25.9751 53.1128 25.3237C53.075 24.6629 53.0562 23.9124 53.0562 23.0723ZM78.7852 19.7729C78.7852 18.1398 79.0589 16.6813 79.6064 15.3975C80.154 14.1136 80.9989 13.0988 82.1411 12.353C83.2928 11.5978 84.7277 11.2202 86.4458 11.2202C87.3426 11.2202 88.2394 11.3288 89.1362 11.5459C90.033 11.7536 90.793 12.1029 91.416 12.5938C91.9919 13.0563 92.4072 13.6699 92.6621 14.4346C92.9264 15.1898 93.0586 16.0299 93.0586 16.9551C93.0586 17.5687 93.0067 18.1965 92.9028 18.8384C92.7896 19.0272 92.5677 19.2773 92.2373 19.5889C91.9069 19.891 91.5199 20.1883 91.0762 20.481C90.6325 20.7736 90.203 21.0002 89.7876 21.1606C89.3911 21.189 88.9805 21.2031 88.5557 21.2031C87.8099 21.2031 87.0547 21.1701 86.29 21.104C85.5254 21.0379 84.8551 20.9624 84.2793 20.8774C84.3548 21.6799 84.6003 22.3784 85.0156 22.9731C85.431 23.5679 86.0918 23.8652 86.998 23.8652C87.083 23.8652 87.2199 23.8558 87.4087 23.8369C87.9845 23.7803 88.6548 23.6292 89.4194 23.3838C90.1935 23.1289 90.9629 22.8363 91.7275 22.5059C92.0863 22.8646 92.3506 23.2233 92.5205 23.582C92.6904 23.9408 92.8084 24.4552 92.8745 25.1255C92.5819 25.4653 92.1051 25.8807 91.4443 26.3716C90.793 26.8625 89.9953 27.3062 89.0513 27.7026C88.1073 28.0897 87.1208 28.2832 86.0918 28.2832C84.5436 28.2832 83.2173 27.9103 82.1128 27.1646C81.0177 26.4093 80.187 25.3898 79.6206 24.106C79.0636 22.8127 78.7852 21.3683 78.7852 19.7729ZM87.9043 16.5161C87.7721 16.3745 87.5503 16.266 87.2388 16.1904C86.9272 16.1055 86.6016 16.063 86.2617 16.063C85.988 16.063 85.7095 16.0866 85.4263 16.1338C85.1525 16.181 84.9873 16.2329 84.9307 16.2896C84.6097 16.922 84.4067 17.6395 84.3218 18.4419L88.1025 18.0737L87.9043 16.5161ZM86.9697 2.61084C88.0176 3.11117 88.8247 3.68701 89.3911 4.33838C89.967 4.98975 90.3446 5.66943 90.5239 6.37744C89.6554 7.18929 88.6217 7.92562 87.4229 8.58643C86.224 9.24723 85.0392 9.75228 83.8687 10.1016C83.5288 9.88444 83.2031 9.56348 82.8916 9.13867C82.5801 8.70443 82.3677 8.28434 82.2544 7.87842L86.9697 2.61084ZM96.3721 24.2051C96.3721 23.7992 96.3815 22.8032 96.4004 21.2173C96.4287 18.1021 96.4429 16.3981 96.4429 16.1055L95.1401 15.8931C94.9608 15.355 94.8333 14.8499 94.7578 14.3779C94.6823 13.9059 94.6445 13.4292 94.6445 12.9478C94.6445 12.7495 94.6493 12.5985 94.6587 12.4946C94.8192 12.353 95.0693 12.1831 95.4092 11.9849C95.749 11.7866 96.1502 11.612 96.6128 11.4609C97.0754 11.3005 97.5474 11.2202 98.0288 11.2202C99.1522 11.2202 99.964 11.4704 100.464 11.9707C100.974 12.471 101.229 13.2026 101.229 14.1655C101.229 14.7508 101.153 15.5013 101.002 16.417C100.861 17.3232 100.715 17.9699 100.563 18.3569L101.073 18.4419L101.923 15.2417C102.3 13.7974 102.772 12.7684 103.339 12.1548C103.905 11.5317 104.542 11.2202 105.25 11.2202C105.713 11.2202 106.171 11.291 106.624 11.4326C107.087 11.5742 107.441 11.7489 107.686 11.9565C107.95 12.5418 108.083 13.3206 108.083 14.293C108.083 14.9727 108.016 15.6476 107.884 16.3179C107.752 16.9787 107.582 17.512 107.375 17.918L104.401 17.5215C103.797 18.1634 103.155 19.0555 102.475 20.1978C101.795 21.3306 101.253 22.3737 100.847 23.3271L100.833 24.0635L103.58 23.4121C104.042 24.1201 104.311 24.9603 104.387 25.9326C104.387 25.9893 104.174 26.2205 103.75 26.6265C103.325 27.0324 102.763 27.41 102.064 27.7593C101.375 28.0991 100.582 28.269 99.6855 28.269C98.7604 28.269 97.9863 28.0236 97.3633 27.5327C96.7497 27.0324 96.424 26.1922 96.3862 25.0122C96.3768 24.8706 96.3721 24.6016 96.3721 24.2051ZM109.031 19.7729C109.031 18.1398 109.305 16.6813 109.853 15.3975C110.4 14.1136 111.245 13.0988 112.387 12.353C113.539 11.5978 114.974 11.2202 116.692 11.2202C117.277 11.2202 117.947 11.258 118.703 11.3335C119.467 11.3996 120.199 11.5034 120.897 11.645L121.181 11.8433C121.605 12.1359 121.917 12.3719 122.115 12.5513C122.323 12.7212 122.54 12.9619 122.767 13.2734C122.767 13.7832 122.696 14.4865 122.554 15.3833C122.422 16.2707 122.252 17.0967 122.044 17.8613C121.837 18.626 121.639 19.1169 121.45 19.334C121.138 19.4945 120.633 19.5747 119.935 19.5747C119.595 19.5747 119.274 19.5511 118.972 19.5039C118.679 19.4473 118.457 19.3765 118.306 19.2915L118.009 16.6719C117.867 16.5114 117.542 16.384 117.032 16.2896C116.531 16.1857 116.069 16.1338 115.644 16.1338C115.512 16.1338 115.389 16.1432 115.276 16.1621C115.059 16.6058 114.894 17.1722 114.78 17.8613C114.667 18.5505 114.61 19.2537 114.61 19.9712C114.61 21.0096 114.78 21.8923 115.12 22.6191C115.46 23.3366 116.154 23.6953 117.202 23.6953C117.721 23.6953 118.231 23.6104 118.731 23.4404C119.241 23.2705 119.883 23.0109 120.657 22.6616C120.978 22.5106 121.218 22.402 121.379 22.3359C121.757 22.7135 122.054 23.11 122.271 23.5254C122.488 23.9408 122.63 24.4741 122.696 25.1255C122.092 25.8335 121.242 26.5368 120.147 27.2354C119.061 27.9339 117.792 28.2832 116.338 28.2832C114.79 28.2832 113.463 27.9103 112.359 27.1646C111.264 26.4093 110.433 25.3898 109.867 24.106C109.31 22.8127 109.031 21.3683 109.031 19.7729ZM125.117 7.68018C125.117 6.84945 125.386 6.17448 125.924 5.65527C126.472 5.13607 127.34 4.87646 128.53 4.87646C129.719 4.87646 130.583 5.13607 131.121 5.65527C131.669 6.17448 131.942 6.84945 131.942 7.68018C131.942 8.15218 131.777 8.58643 131.447 8.98291C131.126 9.37939 130.701 9.69564 130.172 9.93164C129.644 10.1582 129.096 10.2715 128.53 10.2715C127.916 10.2715 127.345 10.1393 126.816 9.875C126.297 9.60124 125.882 9.26139 125.57 8.85547C125.268 8.44954 125.117 8.05778 125.117 7.68018ZM124.423 15.7798C124.301 15.3172 124.216 14.8971 124.168 14.5195C124.121 14.1325 124.098 13.7313 124.098 13.3159L124.112 12.9194C124.31 12.6646 124.617 12.4097 125.032 12.1548C125.457 11.8905 125.948 11.6686 126.505 11.4893C127.071 11.3099 127.657 11.2202 128.261 11.2202C129.582 11.2202 130.522 11.5176 131.079 12.1123C131.636 12.707 131.914 13.6322 131.914 14.8877C131.914 15.6429 131.806 16.6294 131.588 17.8472C131.381 19.0649 131.126 20.2497 130.824 21.4014C130.531 22.5436 130.276 23.3602 130.059 23.8511L130.087 23.8794L132.183 23.1147C132.561 23.4357 132.844 23.7897 133.033 24.1768C133.231 24.5638 133.358 25.0122 133.415 25.522C133.415 25.5881 133.207 25.8618 132.792 26.3433C132.377 26.8153 131.824 27.259 131.135 27.6743C130.456 28.0802 129.667 28.2832 128.771 28.2832C127.864 28.2832 127.128 28.0378 126.562 27.5469C126.005 27.056 125.726 26.2158 125.726 25.0264C125.726 23.6387 125.764 22.166 125.839 20.6084C125.915 19.0508 126.033 17.5404 126.193 16.0771L124.423 15.7798ZM134.604 19.6313C134.604 17.9227 134.878 16.4406 135.426 15.1851C135.973 13.9295 136.813 12.9572 137.946 12.2681C139.079 11.5695 140.5 11.2202 142.208 11.2202C144.097 11.2202 145.579 11.5742 146.655 12.2822C147.731 12.9808 148.481 13.9531 148.906 15.1992C149.34 16.4453 149.558 17.9699 149.558 19.7729C149.558 21.4061 149.27 22.8646 148.694 24.1484C148.127 25.4229 147.268 26.4329 146.117 27.1787C144.974 27.915 143.573 28.2832 141.911 28.2832C139.343 28.2832 137.484 27.495 136.332 25.9185C135.18 24.3325 134.604 22.2368 134.604 19.6313ZM142.492 24.1343C142.973 24.1343 143.266 24.0965 143.37 24.021C143.587 23.6434 143.752 23.11 143.865 22.4209C143.979 21.7318 144.035 20.986 144.035 20.1836C144.035 19.4473 143.988 18.7581 143.894 18.1162C143.799 17.4648 143.667 16.9551 143.497 16.5869C143.393 16.4642 143.186 16.3745 142.874 16.3179C142.562 16.2518 142.223 16.2188 141.854 16.2188C141.373 16.2188 141.043 16.2707 140.863 16.3745C140.391 17.1864 140.155 18.3145 140.155 19.7588C140.155 20.4385 140.207 21.1323 140.311 21.8403C140.415 22.5483 140.547 23.1903 140.708 23.7661C140.821 23.8888 141.052 23.9832 141.401 24.0493C141.751 24.106 142.114 24.1343 142.492 24.1343Z" fill="currentColor"/>
</svg>
