<svg width="143" height="36" viewBox="0 0 143 36" fill="none" xmlns="http://www.w3.org/2000/svg">
<path d="M0.378906 23.7998C0.378906 22.7926 0.583659 21.8242 0.993164 20.8945C1.18132 20.8945 1.47461 20.9333 1.87305 21.0107C2.27148 21.0771 2.69206 21.1657 3.13477 21.2764C3.07943 18.8968 3.05176 16.5726 3.05176 14.3037C3.05176 11.8577 3.09603 9.77148 3.18457 8.04492H3.16797L3.18457 7.8457L0.478516 7.49707C0.3125 6.82194 0.201823 6.26302 0.146484 5.82031C0.0911458 5.36654 0.0690104 4.84635 0.0800781 4.25977C0.434245 3.86133 0.954427 3.5127 1.64062 3.21387C2.33789 2.90397 3.08496 2.67155 3.88184 2.5166C4.68978 2.35059 5.42578 2.26758 6.08984 2.26758C7.36263 2.26758 8.35319 2.52214 9.06152 3.03125C9.78092 3.5293 10.1904 4.32617 10.29 5.42188C10.3232 5.85352 10.3398 6.32389 10.3398 6.83301C10.3398 8.5153 10.1904 10.5075 9.8916 12.8096C9.59277 15.1117 9.19434 17.8011 8.69629 20.8779L8.56348 21.7412L12.7969 21.9736L14.5234 16.4619C15.0436 16.4398 15.6357 16.4785 16.2998 16.5781C16.9749 16.6777 17.556 16.8161 18.043 16.9932C18.2422 17.5133 18.4248 18.3434 18.5908 19.4834C18.7679 20.6123 18.8564 21.7191 18.8564 22.8037C18.8564 24.6077 18.5908 25.875 18.0596 26.6055C17.7939 26.9596 17.4232 27.2695 16.9473 27.5352C16.4824 27.7897 15.9899 27.9834 15.4697 28.1162C14.9606 28.2601 14.5013 28.332 14.0918 28.332C13.4388 28.332 12.6751 28.1937 11.8008 27.917C10.9264 27.6292 10.0687 27.2695 9.22754 26.8379C8.38639 26.3952 7.69466 25.9525 7.15234 25.5098C6.6543 26.373 6.07878 27.0426 5.42578 27.5186C4.77279 27.9945 3.95931 28.2656 2.98535 28.332C2.50944 28.2546 2.07227 28.0055 1.67383 27.585C1.27539 27.1644 0.959961 26.6221 0.727539 25.958C0.495117 25.2939 0.378906 24.5745 0.378906 23.7998ZM19.8525 18.1885C19.8525 16.1852 20.1735 14.4476 20.8154 12.9756C21.4574 11.5036 22.4424 10.3636 23.7705 9.55566C25.0986 8.73665 26.7643 8.32715 28.7676 8.32715C30.9811 8.32715 32.7188 8.74219 33.9805 9.57227C35.2422 10.3913 36.1221 11.5312 36.6201 12.9922C37.1292 14.4531 37.3838 16.2406 37.3838 18.3545C37.3838 20.2692 37.0462 21.9792 36.3711 23.4844C35.707 24.9785 34.6999 26.1628 33.3496 27.0371C32.0104 27.9004 30.3669 28.332 28.4189 28.332C25.4085 28.332 23.2282 27.4079 21.8779 25.5596C20.5277 23.7002 19.8525 21.2432 19.8525 18.1885ZM29.0996 23.4678C29.6641 23.4678 30.0072 23.4235 30.1289 23.335C30.3835 22.8923 30.5771 22.2669 30.71 21.459C30.8428 20.651 30.9092 19.7767 30.9092 18.8359C30.9092 17.9727 30.8538 17.1647 30.7432 16.4121C30.6325 15.6484 30.4775 15.0508 30.2783 14.6191C30.1566 14.4753 29.9131 14.3701 29.5479 14.3037C29.1826 14.2262 28.7842 14.1875 28.3525 14.1875C27.7881 14.1875 27.4007 14.2484 27.1904 14.3701C26.637 15.3219 26.3604 16.6445 26.3604 18.3379C26.3604 19.1348 26.4212 19.9482 26.543 20.7783C26.6647 21.6084 26.8197 22.361 27.0078 23.0361C27.1406 23.18 27.4118 23.2907 27.8213 23.3682C28.2308 23.4346 28.6569 23.4678 29.0996 23.4678ZM49.3369 30.6396C50.0785 30.6396 50.7204 30.5566 51.2627 30.3906C51.4287 30.2246 51.5449 30.0309 51.6113 29.8096C51.6777 29.5993 51.7109 29.4001 51.7109 29.2119C51.7109 29.0127 51.6943 28.8633 51.6611 28.7637C51.6279 28.6751 51.5726 28.5921 51.4951 28.5146C51.0303 28.4372 50.4824 28.3818 49.8516 28.3486C49.2318 28.3265 48.861 28.3099 48.7393 28.2988C47.2008 28.2324 45.9502 28.1217 44.9873 27.9668C44.0244 27.8008 43.1999 27.4466 42.5137 26.9043C41.8275 26.3509 41.4844 25.5208 41.4844 24.4141C41.4844 23.8164 41.6781 23.2575 42.0654 22.7373C42.4528 22.2061 42.9564 21.7412 43.5762 21.3428C42.3145 20.8226 41.3018 20.0423 40.5381 19.002C39.7855 17.9505 39.4092 16.5947 39.4092 14.9346C39.4092 13.2855 39.8298 11.9629 40.6709 10.9668C41.5231 9.95964 42.569 9.2513 43.8086 8.8418C45.0482 8.43229 46.3099 8.22754 47.5938 8.22754C48.4017 8.22754 49.193 8.30501 49.9678 8.45996C50.7425 8.61491 51.4619 8.83626 52.126 9.12402L51.4121 4.90723C52.0872 4.49772 52.9284 4.29297 53.9355 4.29297C54.666 4.29297 55.3467 4.41471 55.9775 4.6582C56.6084 4.90169 57.0898 5.25033 57.4219 5.7041C57.444 5.81478 57.4551 5.99186 57.4551 6.23535C57.4551 7.1429 57.2891 8.1556 56.957 9.27344C56.6361 10.3802 56.0771 11.2712 55.2803 11.9463C55.6787 12.7432 55.8779 13.6009 55.8779 14.5195C55.8779 15.8698 55.6178 17.1149 55.0977 18.2549C54.5885 19.3949 53.7363 20.3245 52.541 21.0439C51.3457 21.7523 49.7907 22.1064 47.876 22.1064C47.3226 22.1064 46.7471 22.0732 46.1494 22.0068C46.1162 22.5602 46.249 23.1136 46.5479 23.667C48.042 23.3792 49.2484 23.2298 50.167 23.2188L51.2959 23.2021C52.8232 23.2021 53.9798 23.2962 54.7656 23.4844C55.6289 23.6947 56.2708 24.1706 56.6914 24.9121C57.123 25.6536 57.3389 26.5557 57.3389 27.6182C57.3389 29.2783 56.8298 30.6729 55.8115 31.8018C54.8044 32.9417 53.4928 33.7884 51.877 34.3418C50.2721 34.8952 48.5677 35.1719 46.7637 35.1719C45.0924 35.1719 43.6038 34.8896 42.2979 34.3252C40.9919 33.7607 40.1673 32.7259 39.8242 31.2207C40.1895 29.9479 40.8867 28.985 41.916 28.332C43.2995 29.1621 44.6221 29.7542 45.8838 30.1084C47.1566 30.4626 48.3076 30.6396 49.3369 30.6396ZM48.3242 18.0059C49.1211 18.0059 49.5859 17.9561 49.7188 17.8564C50.0176 17.2588 50.167 16.6445 50.167 16.0137C50.167 15.3607 50.0176 14.7464 49.7188 14.1709C49.5749 14.0492 49.2539 13.9551 48.7559 13.8887C48.2689 13.8223 47.7376 13.7891 47.1621 13.7891C46.4427 13.7891 45.9613 13.8333 45.7178 13.9219C45.3747 14.5306 45.2031 15.1449 45.2031 15.7646C45.2031 16.3955 45.3636 16.9932 45.6846 17.5576C45.9281 17.7126 46.2933 17.8288 46.7803 17.9062C47.2783 17.9727 47.793 18.0059 48.3242 18.0059ZM58.8662 18.1885C58.8662 16.1852 59.1872 14.4476 59.8291 12.9756C60.471 11.5036 61.4561 10.3636 62.7842 9.55566C64.1123 8.73665 65.778 8.32715 67.7812 8.32715C69.9948 8.32715 71.7324 8.74219 72.9941 9.57227C74.2559 10.3913 75.1357 11.5312 75.6338 12.9922C76.1429 14.4531 76.3975 16.2406 76.3975 18.3545C76.3975 20.2692 76.0599 21.9792 75.3848 23.4844C74.7207 24.9785 73.7135 26.1628 72.3633 27.0371C71.0241 27.9004 69.3805 28.332 67.4326 28.332C64.4222 28.332 62.2419 27.4079 60.8916 25.5596C59.5413 23.7002 58.8662 21.2432 58.8662 18.1885ZM68.1133 23.4678C68.6777 23.4678 69.0208 23.4235 69.1426 23.335C69.3971 22.8923 69.5908 22.2669 69.7236 21.459C69.8564 20.651 69.9229 19.7767 69.9229 18.8359C69.9229 17.9727 69.8675 17.1647 69.7568 16.4121C69.6462 15.6484 69.4912 15.0508 69.292 14.6191C69.1702 14.4753 68.9268 14.3701 68.5615 14.3037C68.1963 14.2262 67.7979 14.1875 67.3662 14.1875C66.8018 14.1875 66.4144 14.2484 66.2041 14.3701C65.6507 15.3219 65.374 16.6445 65.374 18.3379C65.374 19.1348 65.4349 19.9482 65.5566 20.7783C65.6784 21.6084 65.8333 22.361 66.0215 23.0361C66.1543 23.18 66.4255 23.2907 66.835 23.3682C67.2445 23.4346 67.6706 23.4678 68.1133 23.4678ZM79.9834 18.8359C79.9834 17.0319 80.0111 15.3883 80.0664 13.9053L78.2568 13.5898C78.113 13.0365 78.0133 12.5495 77.958 12.1289C77.9027 11.7083 77.875 11.2601 77.875 10.7842L77.9082 10.4521C77.9414 10.2972 77.958 10.1699 77.958 10.0703L80.3652 9.53906C80.4206 8.85286 80.5479 8.07812 80.7471 7.21484C80.9463 6.35156 81.1566 5.71517 81.3779 5.30566C81.7321 5.04004 82.1582 4.84082 82.6562 4.70801C83.1543 4.5752 83.6911 4.50879 84.2666 4.50879C84.7536 4.50879 85.224 4.55859 85.6777 4.6582C86.1426 4.74674 86.5465 4.86849 86.8896 5.02344C86.9229 5.39974 86.9395 5.83138 86.9395 6.31836C86.9395 7.11523 86.9007 8.01725 86.8232 9.02441L89.7451 8.49316C90.1546 9.2015 90.3594 9.9707 90.3594 10.8008C90.3594 11.3763 90.2874 11.8965 90.1436 12.3613C90.0107 12.8262 89.8226 13.3519 89.5791 13.9385C88.8486 14.0602 87.847 14.1377 86.5742 14.1709C86.4193 15.9749 86.0762 18.6257 85.5449 22.123L85.4619 22.6875L85.4951 22.7207L89.3965 21.5088C90.2044 22.1839 90.6969 23.2243 90.874 24.6299C90.874 24.7074 90.5143 25.0726 89.7949 25.7256C89.0866 26.3675 88.1956 26.9652 87.1221 27.5186C86.0485 28.0609 84.8809 28.332 83.6191 28.332C81.4167 28.332 80.2435 26.9873 80.0996 24.2979C80.0221 22.9365 79.9834 21.1159 79.9834 18.8359ZM92.7666 4.17676C92.7666 3.2028 93.082 2.41146 93.7129 1.80273C94.3548 1.19401 95.373 0.889648 96.7676 0.889648C98.1621 0.889648 99.1748 1.19401 99.8057 1.80273C100.448 2.41146 100.769 3.2028 100.769 4.17676C100.769 4.73014 100.575 5.23926 100.188 5.7041C99.8112 6.16895 99.3132 6.53971 98.6934 6.81641C98.0736 7.08203 97.4316 7.21484 96.7676 7.21484C96.0482 7.21484 95.3786 7.0599 94.7588 6.75C94.1501 6.42904 93.6631 6.0306 93.2979 5.55469C92.9437 5.07878 92.7666 4.61947 92.7666 4.17676ZM91.9531 13.6729C91.8092 13.1305 91.7096 12.638 91.6543 12.1953C91.599 11.7415 91.5713 11.2712 91.5713 10.7842L91.5879 10.3193C91.8203 10.0205 92.18 9.72168 92.667 9.42285C93.165 9.11296 93.7406 8.85286 94.3936 8.64258C95.0576 8.43229 95.7438 8.32715 96.4521 8.32715C98.0016 8.32715 99.1029 8.67578 99.7559 9.37305C100.409 10.0703 100.735 11.1549 100.735 12.627C100.735 13.5124 100.608 14.6689 100.354 16.0967C100.11 17.5244 99.8112 18.9134 99.457 20.2637C99.1139 21.6029 98.8151 22.5602 98.5605 23.1357L98.5938 23.1689L101.051 22.2725C101.493 22.6488 101.826 23.0638 102.047 23.5176C102.279 23.9714 102.429 24.4971 102.495 25.0947C102.495 25.1722 102.252 25.4932 101.765 26.0576C101.278 26.611 100.63 27.1312 99.8223 27.6182C99.0254 28.0941 98.1012 28.332 97.0498 28.332C95.9873 28.332 95.124 28.0443 94.46 27.4688C93.807 26.8932 93.4805 25.9082 93.4805 24.5137C93.4805 22.8867 93.5247 21.1602 93.6133 19.334C93.7018 17.5078 93.8402 15.737 94.0283 14.0215L91.9531 13.6729ZM103.591 13.7559C103.358 13.0365 103.203 12.3945 103.126 11.8301C103.06 11.2656 103.026 10.5352 103.026 9.63867C103.203 9.48372 103.491 9.30664 103.89 9.10742C104.288 8.89714 104.764 8.71452 105.317 8.55957C105.871 8.40462 106.441 8.32715 107.027 8.32715C108.367 8.32715 109.313 8.61491 109.866 9.19043C110.431 9.76595 110.713 10.6292 110.713 11.7803C110.713 12.4222 110.619 13.291 110.431 14.3867C110.121 16.1465 109.966 17.0706 109.966 17.1592C109.966 17.2145 110.005 17.2699 110.082 17.3252C110.16 17.3695 110.243 17.3916 110.331 17.3916C110.431 17.3916 110.497 17.3529 110.53 17.2754L110.696 16.6113L111.062 15.2002C111.604 13.1527 112.412 11.498 113.485 10.2363C114.559 8.96354 115.909 8.32715 117.536 8.32715C118.754 8.32715 119.744 8.59277 120.508 9.12402C121.283 9.64421 121.841 10.3359 122.185 11.1992C122.528 12.0514 122.699 12.9922 122.699 14.0215C122.699 15.416 122.566 16.9821 122.301 18.7197C122.035 20.4463 121.681 22.0622 121.238 23.5674C120.807 25.0394 120.087 26.207 119.08 27.0703C118.084 27.9225 116.839 28.3486 115.345 28.3486C114.802 28.3486 114.166 28.2601 113.436 28.083C112.716 27.917 111.803 27.6237 110.696 27.2031L110.032 30.3408L110.065 30.374L113.236 30.1582C113.447 30.457 113.602 30.8167 113.701 31.2373C113.812 31.6689 113.906 32.1615 113.983 32.7148L114.033 33.0469C114.033 33.0911 113.79 33.2959 113.303 33.6611C112.816 34.0374 112.168 34.3805 111.36 34.6904C110.552 35.0114 109.623 35.1719 108.571 35.1719C106.192 35.1719 105.002 33.9046 105.002 31.3701V30.2246C105.002 26.849 105.024 23.8441 105.068 21.21C105.124 18.5648 105.234 16.1797 105.4 14.0547L103.591 13.7559ZM115.278 23.916C115.677 22.4219 115.876 20.1585 115.876 17.126C115.876 16.6058 115.848 16.1852 115.793 15.8643C115.538 15.5433 115.173 15.3828 114.697 15.3828C114.542 15.5156 114.011 16.39 113.104 18.0059C112.196 19.6107 111.526 20.8447 111.095 21.708V22.5049C111.703 22.9255 112.406 23.2741 113.203 23.5508C114 23.8164 114.609 23.9492 115.029 23.9492C115.129 23.9492 115.212 23.9382 115.278 23.916ZM124.642 18.1885C124.642 16.1852 124.963 14.4476 125.604 12.9756C126.246 11.5036 127.231 10.3636 128.56 9.55566C129.888 8.73665 131.553 8.32715 133.557 8.32715C135.77 8.32715 137.508 8.74219 138.77 9.57227C140.031 10.3913 140.911 11.5312 141.409 12.9922C141.918 14.4531 142.173 16.2406 142.173 18.3545C142.173 20.2692 141.835 21.9792 141.16 23.4844C140.496 24.9785 139.489 26.1628 138.139 27.0371C136.799 27.9004 135.156 28.332 133.208 28.332C130.198 28.332 128.017 27.4079 126.667 25.5596C125.317 23.7002 124.642 21.2432 124.642 18.1885ZM133.889 23.4678C134.453 23.4678 134.796 23.4235 134.918 23.335C135.173 22.8923 135.366 22.2669 135.499 21.459C135.632 20.651 135.698 19.7767 135.698 18.8359C135.698 17.9727 135.643 17.1647 135.532 16.4121C135.422 15.6484 135.267 15.0508 135.067 14.6191C134.946 14.4753 134.702 14.3701 134.337 14.3037C133.972 14.2262 133.573 14.1875 133.142 14.1875C132.577 14.1875 132.19 14.2484 131.979 14.3701C131.426 15.3219 131.149 16.6445 131.149 18.3379C131.149 19.1348 131.21 19.9482 131.332 20.7783C131.454 21.6084 131.609 22.361 131.797 23.0361C131.93 23.18 132.201 23.2907 132.61 23.3682C133.02 23.4346 133.446 23.4678 133.889 23.4678Z" fill="currentColor"/>
</svg>
